<?xml version="1.0" encoding="UTF-8"?>
<svg id="Layer_1" data-name="Layer 1" xmlns="http://www.w3.org/2000/svg" viewBox="0 0 76.8 76.8">
  <defs>
    <style>
      .cls-1 {
        fill: #fff;
      }

      .cls-2 {
        fill: #9efffd;
      }

      .cls-3 {
        fill: #45fffc;
      }

      .cls-4 {
        fill: #4afffc;
      }

      .cls-5 {
        fill: #8cfffd;
      }

      .cls-6 {
        fill: #c4fffe;
      }

      .cls-7 {
        fill: #4cfffc;
      }

      .cls-8 {
        fill: #8efffd;
      }

      .cls-9 {
        fill: #fbffff;
      }

      .cls-10 {
        fill: #c9fffe;
      }

      .cls-11 {
        fill: #c0fffe;
      }
    </style>
  </defs>
  <path class="cls-1" d="m.05,38C.05,26.14.11,14.28,0,2.42-.02.45.45,0,2.45,0c23.97.08,47.93.08,71.9,0,2,0,2.46.45,2.45,2.42-.08,23.98-.08,47.97,0,71.95,0,1.98-.45,2.43-2.45,2.42-23.97-.08-47.93-.08-71.9,0-2,0-2.47-.44-2.45-2.42.11-12.12.05-24.25.05-36.37Z"/>
  <path class="cls-3" d="m2.34,34.83c.66-12.39,11.04-25.47,23.81-29.76,16.82-5.64,36.35,1.12,44.47,17.8,10.42,21.41-1.92,46.15-24.38,50.73-1.28.26-2.56.58-3.83.87-2.67.48-5.34.44-8.01.02-15.51-.75-31.45-16.3-32.06-31.73-.44-2.65-.45-5.29,0-7.94Z"/>
  <path class="cls-6" d="m2.34,34.83c0,2.65,0,5.29,0,7.94-1.08-2.65-1.09-5.29,0-7.94Z"/>
  <path class="cls-10" d="m34.4,74.49c2.67,0,5.34-.01,8.01-.02-2.67,1.14-5.34,1.1-8.01.02Z"/>
  <path class="cls-1" d="m33.56,71.32c-12.15-.38-27.1-14.03-27.99-27.7-.5-3.22-.51-6.43,0-9.65.9-11.23,11.09-23.55,23.76-26.79,1.4-.36,2.83-.59,4.25-.89,2.94-.51,5.89-.45,8.84-.04,7.63,1.19,14.36,4.12,19.75,9.78,5.05,5.31,8.2,11.49,9.07,18.77.5,2.65.49,5.31,0,7.96-1.22,8.18-4.66,15.19-11.02,20.7-4.9,4.25-10.51,6.94-16.99,7.83-3.23.48-6.46.46-9.68.01Z"/>
  <path class="cls-11" d="m5.57,33.97c0,3.22,0,6.43,0,9.65-1.15-3.22-1.15-6.43,0-9.65Z"/>
  <path class="cls-2" d="m33.56,71.32c3.23,0,6.46,0,9.68-.01-3.23,1.13-6.45,1.11-9.68.01Z"/>
  <path class="cls-5" d="m42.42,6.26c-2.95.01-5.89.02-8.84.04,2.94-1.16,5.89-1.15,8.84-.04Z"/>
  <path class="cls-8" d="m71.24,42.78c0-2.65,0-5.31,0-7.96,1.15,2.65,1.14,5.3,0,7.96Z"/>
  <path class="cls-7" d="m23.98,26.98c.77,2.82,2.52,4.5,5.54,4.72,1.06.08,2.19.2,2.89-.86.78-1.18-.21-1.96-.77-2.8-.66-.98-1.48-1.87-2.09-2.88-4.84-8.15-2.68-12.23,6.82-14.7,2.74-.71,5.83-.27,8.74-.08,1.9.13,3.78,1.05,4.33,2.98.54,1.9-1.34,2.64-2.61,3.53-1.63,1.14-3.39,2.1-4.95,3.32-2.11,1.65-3.44,3.79-2.34,6.52.56,1.4,1.19,3.19,3.11,3.23,1.89.03,1.51-1.92,1.98-2.98,4.82-10.82,11.24-11.68,18.89-2.52,2.02,2.42,2.99,5.24,3.53,8.19.5,2.78-1.33,4.09-4.04,3.03-1.97-.77-3.81-1.88-5.78-2.65-3.31-1.31-6.22-.75-8.53,2.14-.64.8-.86,1.61-.63,2.56.31,1.28,1.38.99,2.26,1,2.86.03,5.72-.05,8.58.06,3.92.16,5.7,2,5.93,5.92.4,6.85-3.13,14-7.77,16.21-1.91.91-2.68.47-3.55-1.33-1.24-2.56-.53-5.18-.73-7.76-.26-3.43-3.25-6.13-6.61-5.94-.99.06-1.91.34-2.46,1.1-.81,1.1.41,1.64.95,2.25,1.43,1.6,2.51,3.39,3.41,5.31,2.81,5.97,1.53,9.38-4.76,11.71-4.21,1.56-8.56,2.88-13.07.82-3.9-1.78-4.15-3.73-.71-6.16,1.51-1.07,3.07-2.08,4.65-3.07,2.32-1.45,2.99-3.56,2.67-6.12-.22-1.78-.69-3.64-2.69-3.92-2.05-.29-1.67,1.88-2.28,3.02-1.91,3.59-3.49,7.83-8.09,8.51-4.76.69-7.74-2.75-10.56-5.99-1.68-1.93-2.91-4.12-3.46-6.59-.33-1.49-.88-3.41.59-4.43,1.3-.9,3.03-.51,4.56.21,2.6,1.23,5.01,3.01,8.2,2.62,1.24-.15,2.38-.32,3.26-1.19,1.19-1.18,3.05-2.26,2.1-4.25-.94-1.97-2.5-.25-3.8-.2-2.13.07-4.27.22-6.38.02-4.48-.43-7.65-4.01-7.02-8.35.74-5.12,2.24-10.09,6.6-13.48,2.09-1.62,4.41-2.41,5.4,1.3.87,2.6-.3,5.37.68,7.97Z"/>
  <path class="cls-6" d="m23.98,26.98c-1.44-2.55-.56-5.3-.68-7.97,1.4,2.56.47,5.31.68,7.97Z"/>
  <path class="cls-9" d="m38.31,45.9c-3.89,0-7.07-3.12-7.12-6.99-.05-3.82,3.11-7.08,6.95-7.17,3.96-.09,7.44,3.3,7.39,7.2-.05,3.72-3.41,6.96-7.21,6.96Z"/>
  <path class="cls-4" d="m38.55,42.77c-3.02.05-4.93-1.35-4.82-4.09.09-2.42,1.84-3.83,4.52-3.85,2.77-.02,4.22,1.23,4.25,3.95.03,2.71-1.32,4.12-3.95,3.99Z"/>
</svg>